{"title":"Get on Up (2014) BRRIP1080P NO CINAVIA","uid":11871663,"size":2842626817,"categoryP":"video","categoryS":"hd___movies","magnet":"?xt=urn:btih:3d5ca23ae57ead981f2c048ec96ca2be94ca403f&amp;dn=+Get+on+Up+%282014%29+BRRIP1080P+NO+CINAVIA&amp;tr=udp%3A%2F%2Ftracker.openbittorrent.com%3A80&amp;tr=udp%3A%2F%2Fopen.demonii.com%3A1337&amp;tr=udp%3A%2F%2Ftracker.coppersurfer.tk%3A6969&amp;tr=udp%3A%2F%2Fexodus.desync.com%3A6969","seeders":0,"leechers":2,"uploader":"jmanwf","files":2,"time":1430447346,"description":"A chronicle of James Brown's rise from extreme poverty to become one of the most influential musicians in history\n\n\nVideo\nID                                       : 1\nFormat                                   : AVC\nFormat/Info                              : Advanced Video Codec\nFormat profile                           : &lt;a class=&quot;__cf_email__&quot; href=&quot;/cdn-cgi/l/email-protection&quot; data-cfemail=&quot;7139181619313d455f40&quot;&gt;[email&amp;#160;protected]&lt;/a&gt;&lt;script cf-hash='f9e31' type=&quot;text/javascript&quot;&gt;\n/* &lt;![CDATA[ */!function(){try{var t=&quot;currentScript&quot;in document?document.currentScript:function(){for(var t=document.getElementsByTagName(&quot;script&quot;),e=t.length;e--;)if(t[e].getAttribute(&quot;cf-hash&quot;))return t[e]}();if(t&amp;&amp;t.previousSibling){var e,r,n,i,c=t.previousSibling,a=c.getAttribute(&quot;data-cfemail&quot;);if(a){for(e=&quot;&quot;,r=parseInt(a.substr(0,2),16),n=2;a.length-n;n+=2)i=parseInt(a.substr(n,2),16)^r,e+=String.fromCharCode(i);e=document.createTextNode(e),c.parentNode.replaceChild(e,c)}}}catch(u){}}();/* ]]&gt; */&lt;/script&gt;\nFormat settings, CABAC                   : Yes\nFormat settings, ReFrames                : 4 frames\nCodec ID                                 : avc1\nCodec ID/Info                            : Advanced Video Coding\nDuration                                 : 2h 18mn\nBit rate                                 : 2 500 Kbps\nWidth                                    : 1 920 pixels\nHeight                                   : 1 040 pixels\nDisplay aspect ratio                     : 16:9\nFrame rate mode                          : Constant\nFrame rate                               : 23.976 fps\nColor space                              : YUV\nChroma subsampling                       : 4:2:0\nBit depth                                : 8 bits\nScan type                                : Progressive\nBits/(Pixel*Frame)                       : 0.052\nStream size                              : 2.42 GiB (92%)\nWriting library                          : x264 core 142 r2491M 24e4fed\n\n\nAudio\nID                                       : 2\nFormat                                   : AAC\nFormat/Info                              : Advanced Audio Codec\nFormat profile                           : LC\nCodec ID                                 : 40\nDuration                                 : 2h 18mn\nBit rate mode                            : Variable\nBit rate                                 : 223 Kbps\nMaximum bit rate                         : 896 Kbps\nChannel(s)                               : 6 channels\nChannel positions                        : Front: L C R, Side: L R, LFE\nSampling rate                            : 48.0 KHz\nCompression mode                         : Lossy\nDelay relative to video                  : -1s 0ms\nStream size                              : 222 MiB (8%)\n\nText\nID                                       : 3\nFormat                                   : Timed text\nMuxing mode                              : sbtl\nCodec ID                                 : tx3g\nDelay relative to video                  : -1s 0ms\nStream size                              : 2.00 Bytes (0%)\n &lt;a href=&quot;\nhttp://s12.postimg.org/sm82fmui5/image.jpg&quot; rel=&quot;nofollow&quot; target=&quot;_NEW&quot;&gt;\nhttp://s12.postimg.org/sm82fmui5/image.jpg&lt;/a&gt;\n\n\n\n\n &lt;a href=&quot;\nhttp://www.imdb.com/title/tt2473602/&quot; rel=&quot;nofollow&quot; target=&quot;_NEW&quot;&gt;\nhttp://www.imdb.com/title/tt2473602/&lt;/a&gt;","torrent":{"xt":"urn:btih:3d5ca23ae57ead981f2c048ec96ca2be94ca403f","amp;dn":"+Get+on+Up+%282014%29+BRRIP1080P+NO+CINAVIA","amp;tr":["udp%3A%2F%2Ftracker.openbittorrent.com%3A80","udp%3A%2F%2Fopen.demonii.com%3A1337","udp%3A%2F%2Ftracker.coppersurfer.tk%3A6969","udp%3A%2F%2Fexodus.desync.com%3A6969"],"infoHash":"3d5ca23ae57ead981f2c048ec96ca2be94ca403f","infoHashBuffer":{"type":"Buffer","data":[61,92,162,58,229,126,173,152,31,44,4,142,201,108,162,190,148,202,64,63]},"announce":[],"urlList":[]}}